<svg width="960" height="1280" viewBox="0 0 960 1280" fill="none" xmlns="http://www.w3.org/2000/svg">
  <defs>
    <linearGradient id="bg" x1="0" y1="0" x2="960" y2="1280" gradientUnits="userSpaceOnUse">
      <stop stop-color="#16152d"/>
      <stop offset="0.55" stop-color="#34235a"/>
      <stop offset="1" stop-color="#f1a65a"/>
    </linearGradient>
    <radialGradient id="vignette" cx="0" cy="0" r="1" gradientUnits="userSpaceOnUse" gradientTransform="translate(480 520) rotate(90) scale(720 520)">
      <stop stop-color="#ffffff" stop-opacity="0.18"/>
      <stop offset="1" stop-color="#000000" stop-opacity="0.18"/>
    </radialGradient>
    <filter id="soft" x="-40%" y="-40%" width="180%" height="180%"><feGaussianBlur stdDeviation="30"/></filter>
  </defs>
  <rect width="960" height="1280" fill="url(#bg)"/>
  <rect width="960" height="1280" fill="url(#vignette)"/>
  <circle cx="160" cy="190" r="180" fill="#ffe3a8" opacity="0.2" filter="url(#soft)"/>
  <circle cx="790" cy="940" r="240" fill="#ffffff" opacity="0.14" filter="url(#soft)"/>
  <path d="M70 910H890" stroke="#ffffff" opacity="0.16" stroke-width="2"/><path d="M160 820L220 710L280 820" fill="#fff" opacity="0.1"/><rect x="690" y="230" width="70" height="520" rx="35" fill="#fff" opacity="0.09"/><rect x="785" y="300" width="42" height="420" rx="21" fill="#ffd68a" opacity="0.16"/>
  <circle cx="80" cy="90" r="3" fill="#ffe3a8" opacity="0.14"/>
<circle cx="253" cy="341" r="2" fill="#ffe3a8" opacity="0.17500000000000002"/>
<circle cx="426" cy="592" r="2" fill="#ffe3a8" opacity="0.21000000000000002"/>
<circle cx="599" cy="843" r="3" fill="#ffe3a8" opacity="0.24500000000000002"/>
<circle cx="772" cy="94" r="2" fill="#ffe3a8" opacity="0.28"/>
<circle cx="145" cy="345" r="2" fill="#ffe3a8" opacity="0.14"/>
<circle cx="318" cy="596" r="3" fill="#ffe3a8" opacity="0.17500000000000002"/>
<circle cx="491" cy="847" r="2" fill="#ffe3a8" opacity="0.21000000000000002"/>
<circle cx="664" cy="98" r="2" fill="#ffe3a8" opacity="0.24500000000000002"/>
<circle cx="837" cy="349" r="3" fill="#ffe3a8" opacity="0.28"/>
<circle cx="210" cy="600" r="2" fill="#ffe3a8" opacity="0.14"/>
<circle cx="383" cy="851" r="2" fill="#ffe3a8" opacity="0.17500000000000002"/>
<circle cx="556" cy="102" r="3" fill="#ffe3a8" opacity="0.21000000000000002"/>
<circle cx="729" cy="353" r="2" fill="#ffe3a8" opacity="0.24500000000000002"/>
<circle cx="102" cy="604" r="2" fill="#ffe3a8" opacity="0.28"/>
<circle cx="275" cy="855" r="3" fill="#ffe3a8" opacity="0.14"/>
<circle cx="448" cy="106" r="2" fill="#ffe3a8" opacity="0.17500000000000002"/>
<circle cx="621" cy="357" r="2" fill="#ffe3a8" opacity="0.21000000000000002"/>
  
    <ellipse cx="480" cy="1128" rx="300" ry="36" fill="#000" opacity="0.16"/>
    <path d="M286 1138C296 934 348 786 480 786C612 786 664 934 674 1138H286Z" fill="#111" opacity="0.18"/>
    
    <path d="M312 806C366 748 421 724 480 724C539 724 594 748 648 806C686 880 704 992 708 1142H252C256 992 274 880 312 806Z" fill="#34235a" opacity="0.95"/><ellipse cx="480" cy="806" rx="126" ry="72" fill="#ffe3a8" opacity="0.9"/>
    <path d="M405 690C416 750 438 782 480 782C522 782 544 750 555 690V628H405V690Z" fill="#e2a97d"/>
    <path d="M400 698C425 724 452 738 480 738C508 738 535 724 560 698C552 766 522 806 480 806C438 806 408 766 400 698Z" fill="#bf765a" opacity="0.25"/>
    <path d="M340 418C344 324 402 256 490 258C582 260 636 334 620 462C614 566 560 686 480 686C398 686 334 560 340 418Z" fill="#e2a97d"/>
    <path d="M336 448C322 394 334 320 392 270C454 216 548 222 600 280C648 334 650 420 624 486C604 414 572 358 520 344C456 328 412 350 372 400C360 416 350 434 336 448Z" fill="#171219"/>
    <path d="M360 408C392 338 448 302 524 322C568 334 600 368 620 424C620 330 568 268 486 260C398 252 342 318 336 418C344 416 352 412 360 408Z" fill="#ffffff" opacity="0.08"/>
    <ellipse cx="334" cy="496" rx="30" ry="44" fill="#e2a97d"/>
    <ellipse cx="626" cy="496" rx="30" ry="44" fill="#e2a97d"/>
    <path d="M410 480C432 468 454 468 474 480" stroke="#2b1b17" stroke-width="8" stroke-linecap="round" opacity="0.9"/>
    <path d="M486 480C508 468 530 468 550 480" stroke="#2b1b17" stroke-width="8" stroke-linecap="round" opacity="0.9"/>
    <circle cx="444" cy="506" r="8" fill="#171312"/>
    <circle cx="516" cy="506" r="8" fill="#171312"/>
    <path d="M480 514C468 548 468 572 492 582" stroke="#9d5d4d" stroke-width="6" stroke-linecap="round" fill="none" opacity="0.6"/>
    <path d="M430 604C464 628 504 630 538 604" stroke="#9d3e45" stroke-width="7" stroke-linecap="round" fill="none" opacity="0.78"/>
    <path d="M388 540C416 558 438 564 462 556" stroke="#f4b2a0" stroke-width="13" stroke-linecap="round" opacity="0.22"/>
    <path d="M498 556C524 564 546 558 572 540" stroke="#f4b2a0" stroke-width="13" stroke-linecap="round" opacity="0.2"/>
    
  
  <rect x="42" y="42" width="876" height="1196" rx="72" stroke="#fff" stroke-opacity="0.22" stroke-width="2"/>
  <rect x="72" y="72" width="232" height="54" rx="27" fill="#fff" opacity="0.18"/>
  <text x="188" y="107" fill="#fff" opacity="0.82" font-size="22" text-anchor="middle" font-family="Arial, Helvetica, sans-serif" font-weight="700">城市写真</text>
  <text x="480" y="1162" fill="#fff" opacity="0.94" font-size="44" text-anchor="middle" font-family="Arial, Helvetica, sans-serif" font-weight="800">宜宾夜景电影感</text>
  <text x="480" y="1204" fill="#fff" opacity="0.7" font-size="22" text-anchor="middle" font-family="Arial, Helvetica, sans-serif" letter-spacing="3">REALISTIC PORTRAIT</text>
</svg>